<svg width="127" height="103" viewBox="0 0 127 103" fill="none" xmlns="http://www.w3.org/2000/svg">
<path d="M57.5604 91.5602C47.5948 99.1417 37.0569 102.932 25.9469 102.932C18.3653 102.932 12.2143 100.691 7.49371 96.2092C2.82082 91.7271 0.484375 85.886 0.484375 78.6859C0.484375 64.8103 10.3308 53.2949 30.0237 44.1399C26.972 36.4153 25.4462 30.2166 25.4462 25.5437C25.4462 18.4866 27.8542 12.6217 32.6701 7.94879C37.5337 3.2759 43.6371 0.939453 50.9802 0.939453C61.6611 0.939453 67.0016 5.66003 67.0016 15.1012C67.0016 23.8271 58.4425 32.9345 41.3245 42.4233C41.849 43.5677 42.1589 44.2591 42.2543 44.4975L44.1854 48.4313C45.8067 51.7691 47.0226 54.1532 47.8332 55.5837C55.0332 48.0021 66.1671 44.2114 81.2348 44.2114H91.0336L96.1833 44.1399C104.623 44.1399 110.631 43.1147 114.207 41.0643C117.783 38.9663 119.572 35.4616 119.572 30.5503C119.572 27.6894 118.165 24.8284 115.352 21.9675L123.291 13.9568C125.294 16.627 126.295 20.0125 126.295 24.1132C126.295 33.1729 122.433 40.3968 114.708 45.7849C107.031 51.173 96.7555 53.8671 83.8812 53.8671H82.5938C80.1619 65.0725 74.44 75.2051 65.428 84.2647C70.244 90.988 74.7023 94.3496 78.803 94.3496C82.0931 94.3496 85.5262 91.8701 89.1024 86.9111C89.8653 87.5787 90.2468 88.3654 90.2468 89.2714C90.2468 91.7509 88.1965 94.6595 84.0958 97.9973C80.0427 101.287 76.4904 102.932 73.4387 102.932C68.9565 102.932 63.6638 99.1417 57.5604 91.5602ZM40.2516 39.8484C51.457 33.2682 57.0597 25.7582 57.0597 17.3184C57.0597 14.0283 55.9154 11.1912 53.6266 8.80708C51.3378 6.42295 48.6199 5.23088 45.4729 5.23088C38.2251 5.23088 34.6013 9.76073 34.6013 18.8204C34.6013 23.684 36.4847 30.6934 40.2516 39.8484ZM55.6293 89.1284L53.9127 86.7681C46.1881 75.8488 39.2265 63.4513 33.0277 49.5757L31.8118 46.8578C19.3667 52.9135 13.1441 61.997 13.1441 74.1084C13.1441 80.6885 15.3137 86.1005 19.6528 90.3443C23.9919 94.588 29.4992 96.7099 36.1748 96.7099C42.6596 96.7099 49.1444 94.1827 55.6293 89.1284ZM63.3538 81.6899C69.7433 72.4395 73.3195 63.1652 74.0824 53.8671H72.0082C61.7565 53.8671 54.1511 55.2261 49.1921 57.944C50.0504 59.5175 50.5511 60.4473 50.6941 60.7334L55.5577 69.1017C59.1339 75.2527 61.7326 79.4488 63.3538 81.6899Z" fill="white"/>
</svg>
