<svg width="28" height="8" viewBox="0 0 28 8" fill="none" xmlns="http://www.w3.org/2000/svg">
<path d="M27.7797 3.63665L22.3302 0.199891C22.1335 0.0753302 21.8524 0.0951309 21.6746 0.245773L18.9283 2.57597H14.69C14.6461 2.5341 14.6 2.49589 14.5516 2.46318L11.7913 0.598084C11.5222 0.416302 11.0744 0.279268 10.7497 0.279268H6.03989C5.76425 0.279268 5.53772 0.399817 5.41831 0.610035C5.35446 0.722384 5.32951 0.847991 5.34059 0.976651H3.56516C3.28952 0.976651 3.0629 1.0972 2.94358 1.30742C2.87414 1.42962 2.85068 1.56744 2.86978 1.70788H0.702967C0.427328 1.70788 0.200798 1.82843 0.0813841 2.03865C-0.0380302 2.24878 -0.0255567 2.50522 0.115665 2.74196L0.80668 3.90086C0.847066 3.96864 0.847066 4.13533 0.80668 4.20319L0.115665 5.36201C-0.0254695 5.59883 -0.037943 5.85519 0.0814713 6.06533C0.200886 6.27554 0.427415 6.39609 0.703054 6.39609H2.86987C2.85077 6.53653 2.87423 6.67435 2.94366 6.79655C3.06308 7.00677 3.28961 7.12732 3.56525 7.12732H5.35699C5.31869 7.2907 5.33788 7.45329 5.41831 7.59477C5.53772 7.80499 5.76425 7.92554 6.03989 7.92554H10.7497C11.0746 7.92554 11.5224 7.78842 11.7914 7.60655L14.5517 5.74162C14.6001 5.70891 14.6462 5.67071 14.6901 5.62884H19.0472L21.675 7.85837C21.7738 7.9422 21.9018 7.98825 22.0352 7.98825C22.1412 7.98825 22.2433 7.95921 22.3298 7.90443L27.7795 4.46758C27.9261 4.37521 28.0137 4.21985 28.0137 4.05194C28.0137 3.88403 27.9261 3.72876 27.7797 3.63665Z" fill="white"/>
</svg>
