<svg width="141" height="141" viewBox="0 0 141 141" fill="none" xmlns="http://www.w3.org/2000/svg">
<g clip-path="url(#clip0_18_5955)">
<path d="M110.756 25.9199C108.881 25.9199 107.355 27.4458 107.355 29.3207C107.355 31.1956 108.881 32.7215 110.756 32.7215C112.631 32.7215 114.157 31.1959 114.157 29.3207C114.157 27.4455 112.631 25.9199 110.756 25.9199Z" fill="white"/>
<path d="M70.0435 39.8926C53.4194 39.8926 39.8945 53.4174 39.8945 70.0415C39.8945 86.6656 53.4194 100.191 70.0435 100.191C86.6678 100.191 100.193 86.6659 100.193 70.0418C100.193 53.4177 86.6678 39.8926 70.0435 39.8926Z" fill="white"/>
<path d="M101.679 0H38.4008C17.2266 0 0 17.2266 0 38.4011V101.679C0 122.854 17.2266 140.08 38.4008 140.08H101.679C122.854 140.08 140.08 122.853 140.08 101.679V38.4011C140.08 17.2266 122.854 0 101.679 0ZM70.04 108.461C48.8543 108.461 31.619 91.2257 31.619 70.04C31.619 48.8543 48.8545 31.6192 70.04 31.6192C91.2255 31.6192 108.461 48.8545 108.461 70.04C108.461 91.2255 91.2255 108.461 70.04 108.461ZM110.759 40.9942C104.323 40.9942 99.0861 35.7576 99.0861 29.321C99.0861 22.8845 104.323 17.6476 110.759 17.6476C117.196 17.6476 122.432 22.8842 122.432 29.3208C122.432 35.7573 117.196 40.9942 110.759 40.9942Z" fill="white"/>
</g>
<defs>
<clipPath id="clip0_18_5955">
<rect width="140.08" height="140.08" fill="white"/>
</clipPath>
</defs>
</svg>
