<svg width="146" height="54" viewBox="0 0 146 54" fill="none" xmlns="http://www.w3.org/2000/svg">
<g clip-path="url(#clip0_11_5939)">
<path d="M10.1874 0.613806C9.08814 1.03136 7.28757 1.96357 6.30199 2.62389C4.76676 3.64349 3.34526 5.06123 2.49235 6.43042C2.30282 6.72173 2.07538 7.08102 1.98061 7.22668C1.87637 7.37234 1.80055 7.50829 1.80055 7.53742C1.80055 7.56655 1.61102 8.00352 1.3741 8.50847C1.14666 9.00371 0.909744 9.63489 0.843407 9.88737C0.77707 10.1496 0.701256 10.402 0.663349 10.4603C0.625442 10.5088 0.540152 10.8002 0.483292 11.0915C0.426432 11.3828 0.312711 11.9751 0.217944 12.4024C0.0947468 12.9947 0.0473633 13.6453 0.0473633 15.1213C0.0473633 16.7916 0.0757934 17.2188 0.274804 18.1802C0.796023 20.7923 1.59207 22.5014 3.21258 24.5211C3.79066 25.2494 5.21217 26.6186 5.83763 27.0556C8.33 28.7841 9.4293 29.289 11.8648 29.794C13.021 30.0367 13.3053 30.0562 15.3522 30.0562C17.2476 30.0562 17.7593 30.027 18.7639 29.8425C21.3889 29.357 23.7486 28.5122 25.3123 27.4731L25.843 27.1236L25.9093 26.269C25.9946 25.0746 26.2505 20.4039 26.241 20.1708C26.241 20.064 26.1746 20.1902 26.1083 20.4621C26.0325 20.7243 25.9377 21.0351 25.8809 21.1419C25.8335 21.2487 25.6345 21.6857 25.4449 22.1129C24.6868 23.7734 23.4264 25.366 21.9859 26.473C20.7161 27.444 18.8397 28.1723 16.9633 28.4345C13.8834 28.852 11.3152 28.1529 8.81332 26.2302C6.58629 24.5114 5.28798 22.0741 4.52985 18.1802C4.34031 17.1897 4.31188 16.7818 4.31188 14.5387C4.32136 12.1305 4.33083 11.9654 4.57723 10.907C5.79972 5.65357 8.89861 2.49765 13.8265 1.48775C15.864 1.0702 18.0342 1.2547 19.5694 1.96357C21.2183 2.74041 22.8388 4.21642 24.0519 6.07113C24.4215 6.64405 24.7342 7.13929 24.7342 7.16842C24.7342 7.19755 24.9142 7.54713 25.1417 7.96468C25.3596 8.37252 25.5966 8.83863 25.6534 9.00371C25.7577 9.24647 25.7671 8.97458 25.7198 7.45002C25.6913 6.43042 25.6345 4.88644 25.5871 4.00278C25.5018 2.50736 25.4828 2.39083 25.2933 2.25489C24.9237 2.00241 23.2274 1.29354 21.7775 0.798306L20.3749 0.31278L15.665 0.32249H10.9456L10.1874 0.613806Z" fill="white"/>
<path d="M41.1287 0.623649C40.6928 1.75007 39.7925 3.9835 39.4703 4.73121C39.4039 4.88657 39.186 5.41094 38.9964 5.89647C38.1435 8.02308 37.7739 8.94558 37.5749 9.44082C37.4612 9.73213 37.2053 10.3633 37.0158 10.8294C36.8263 11.2955 36.5894 11.8782 36.4851 12.1112C36.3809 12.3443 36.2956 12.5676 36.2956 12.5967C36.2956 12.6259 36.2103 12.8492 36.106 13.0823C36.0018 13.3153 35.7649 13.898 35.5754 14.3641C35.3858 14.8302 35.1299 15.4808 34.9973 15.8012C34.8646 16.1217 34.6845 16.5781 34.5898 16.8208C34.3813 17.3646 34.1444 17.9472 33.9738 18.326C33.9075 18.4813 33.7179 18.9474 33.5568 19.3456C33.4052 19.7437 33.1209 20.4429 32.9314 20.8993C32.7418 21.3556 32.5523 21.8315 32.5049 21.9674C32.4575 22.1034 32.268 22.5792 32.0784 23.0356C31.8889 23.492 31.6804 24.0163 31.6046 24.2008C31.4909 24.5213 31.2255 25.1525 30.9412 25.8031C30.8654 25.9682 30.6759 26.444 30.5053 26.8712C30.003 28.1627 29.7567 28.59 29.1596 29.1726L28.5815 29.7358H30.7991H33.0072L32.5618 29.328C32.1164 28.9299 32.1069 28.9202 32.1543 28.4346C32.1732 28.1239 32.4007 27.4442 32.7323 26.6285C33.0356 25.9099 33.3294 25.1622 33.4052 24.968C33.4715 24.7738 33.5758 24.531 33.6232 24.4339C33.68 24.3271 33.9454 23.6765 34.2107 22.987C34.4855 22.2879 34.7888 21.5401 34.8836 21.3071L35.0731 20.8993L40.4464 20.9187L45.8197 20.9478L46.0376 21.5304C46.1608 21.8509 46.3219 22.249 46.3883 22.4044C46.4641 22.5695 46.6536 23.0453 46.8147 23.4725C46.9758 23.8998 47.1748 24.3853 47.2507 24.5601C47.3265 24.7252 47.3833 24.8903 47.3833 24.9291C47.3833 24.968 47.4971 25.269 47.6297 25.5992C47.7624 25.9196 47.9614 26.3857 48.0562 26.6285C48.6532 28.0753 48.5963 28.7259 47.8382 29.3377L47.3549 29.7358H50.8423H54.3203L53.5906 29.2309C53.0314 28.8619 52.7661 28.59 52.4913 28.153C52.2828 27.8326 52.1217 27.5315 52.1217 27.4733C52.1217 27.4247 52.0648 27.2499 51.989 27.0849C51.6668 26.3469 51.2688 25.3758 51.2688 25.3175C51.2688 25.2787 51.2024 25.1136 51.1266 24.9485C51.0603 24.7738 50.8992 24.395 50.7949 24.1037C50.6812 23.8124 50.5106 23.3754 50.4159 23.1327C50.3211 22.8899 50.1505 22.4529 50.0368 22.1616C49.9326 21.8703 49.7715 21.4916 49.7051 21.3168C49.6293 21.1517 49.563 20.9769 49.563 20.9284C49.5535 20.8895 49.4777 20.6759 49.3734 20.4623C49.2692 20.2486 49.1934 20.035 49.1839 19.9962C49.1839 19.9185 48.9565 19.365 48.4732 18.2289C48.4068 18.0638 48.3026 17.7627 48.2362 17.5491C48.1699 17.3355 48.0846 17.1121 48.0467 17.0636C48.0088 17.0053 47.9425 16.8597 47.9045 16.7237C47.8666 16.5878 47.7624 16.3062 47.6676 16.0925C47.5729 15.8789 47.1748 14.8496 46.7673 13.8106C46.3693 12.7715 45.9903 11.7811 45.9144 11.6257C45.8481 11.4606 45.5448 10.7032 45.2511 9.94576C44.9573 9.17863 44.6635 8.4115 44.5972 8.24642C44.2465 7.4016 44.0381 6.87724 43.6779 5.94502C43.4695 5.38181 43.2136 4.73121 43.1188 4.48844C43.024 4.24568 42.6829 3.37173 42.3702 2.54634C41.5741 0.477991 41.4983 0.312912 41.3656 0.312912C41.2993 0.312912 41.195 0.45857 41.1287 0.623649ZM41.2709 9.10095C41.413 9.46995 41.5836 9.90692 41.6594 10.072C41.7257 10.2274 41.8395 10.5381 41.9153 10.7517C42.1238 11.3247 42.825 13.1502 42.9293 13.3736C42.9767 13.4804 43.1662 13.9853 43.3557 14.4903C43.5453 14.9952 43.7348 15.5002 43.7822 15.607C43.8296 15.7138 44.0191 16.2188 44.2086 16.7237C44.3982 17.2287 44.6351 17.8307 44.7393 18.0541C44.8341 18.2871 44.9194 18.5105 44.9194 18.5687C44.9194 18.6367 43.4221 18.6658 40.5127 18.6658C35.5848 18.6658 35.9639 18.7338 36.3051 17.9181C36.4093 17.6656 36.6936 16.9665 36.9305 16.3839C37.1674 15.7915 37.4612 15.0729 37.5749 14.7816C37.6981 14.4903 37.9445 13.8494 38.1341 13.3736C38.5226 12.4025 39.3755 10.3245 39.565 9.87779C39.6409 9.71271 39.8399 9.21747 40.0199 8.76108C40.2 8.30468 40.399 7.81916 40.4653 7.6735L40.5885 7.4016L40.8065 7.91626C40.9202 8.18816 41.1287 8.72224 41.2709 9.10095Z" fill="white"/>
<path d="M56.5664 0.555485C56.7844 0.691433 56.9928 0.798248 57.0213 0.798248C57.0497 0.798248 57.2298 0.924485 57.4288 1.08956C58.149 1.6722 58.0921 0.526353 58.0921 15.1601C58.0921 27.9489 58.0827 28.2985 57.9121 28.6578C57.7225 29.0268 57.2392 29.4735 56.8412 29.6385C56.6991 29.6968 57.4477 29.7259 58.9924 29.7259C61.0015 29.7356 61.3237 29.7162 61.1247 29.6094C60.594 29.3181 60.3476 29.1045 60.1296 28.716L59.8927 28.3082L59.9117 16.0923L59.9401 3.86678L61.2668 5.56612C61.9965 6.48862 62.6315 7.31402 62.6883 7.38199C62.7357 7.44997 62.8494 7.58591 62.9253 7.67331C63.0011 7.7607 63.5602 8.46957 64.1667 9.24642C65.0859 10.4214 67.0761 12.9558 68.109 14.2765C68.2512 14.4513 68.4502 14.7037 68.5544 14.8494C68.6681 14.9853 69.3599 15.869 70.1086 16.8109C70.8478 17.7528 71.5301 18.6171 71.6249 18.7433C71.7102 18.8696 71.8523 19.0443 71.9281 19.1317C72.0134 19.2288 72.4114 19.7435 72.8284 20.2679C73.2359 20.802 74.231 22.0643 75.0365 23.0839C75.842 24.0938 76.6001 25.0552 76.7328 25.2202C76.856 25.3756 77.0361 25.6184 77.1214 25.7446C77.2067 25.8709 77.4341 26.1525 77.6142 26.3758C77.7942 26.5991 78.5239 27.5216 79.2252 28.415L80.5045 30.0464L80.5519 15.7816C80.5898 4.1678 80.6183 1.46828 80.7225 1.2158C80.7983 1.04101 81.0258 0.769117 81.2437 0.604038L81.6323 0.312722H79.7654H77.8985L78.268 0.65259C78.5144 0.885643 78.6661 1.12841 78.7419 1.42943C78.8651 1.91496 78.8935 22.0643 78.7798 22.0643C78.7324 22.0546 78.3818 21.6371 77.9932 21.1321C77.6047 20.6272 77.2161 20.1416 77.1403 20.0445C76.9508 19.8309 76.3917 19.1123 75.9463 18.5103C75.7472 18.2481 75.5198 17.9471 75.425 17.8402C75.3303 17.7334 74.6669 16.8983 73.9561 15.9952C73.2454 15.0824 72.5536 14.2085 72.4209 14.0337C72.2788 13.8686 72.0798 13.6162 71.9755 13.4802C71.8713 13.3346 71.6912 13.1015 71.5775 12.9558C68.9524 9.63484 67.1898 7.3917 66.7918 6.86733C66.7538 6.80907 65.9294 5.76033 64.9533 4.53681C63.9867 3.30357 63.1432 2.23541 63.0864 2.15772C63.02 2.08004 62.6789 1.63335 62.3187 1.15754L61.6649 0.312722H58.9071H56.1494L56.5664 0.555485Z" fill="white"/>
<path d="M94.5397 0.652532C93.2793 1.14777 91.6114 2.01201 90.5784 2.71117C86.6835 5.35243 84.4375 9.89696 84.4375 15.1601C84.4375 19.2871 85.6884 22.5401 88.3229 25.2785C90.8248 27.8809 93.2414 29.2306 96.4729 29.8327C98.1882 30.1629 101.268 30.1629 103.107 29.8424C105.59 29.4151 107.769 28.6577 109.465 27.6381C110.176 27.2109 110.205 27.172 110.252 26.7836C110.328 26.0844 110.593 22.3556 110.65 21.1903C110.697 19.9668 110.707 19.9668 110.252 21.2777C109.826 22.4915 108.812 24.1423 107.892 25.1037C105.95 27.1137 104.111 28.0557 101.372 28.4247C98.8516 28.7548 97.1173 28.4732 94.9472 27.3565C94.4544 27.104 94.0374 26.871 94.009 26.8321C93.9805 26.803 93.7247 26.6088 93.4309 26.4049C92.7486 25.9291 91.5924 24.7152 91.0333 23.8898C90.7964 23.5208 90.5974 23.1907 90.5974 23.1421C90.5974 23.1033 90.5215 22.9576 90.4268 22.8314C90.0667 22.3362 89.4128 20.4135 89.0906 18.8598C88.6641 16.8303 88.5409 14.0725 88.7873 12.1595C89.4412 7.09062 92.2463 3.37148 96.5203 1.93432C98.5294 1.25459 101.041 1.07008 102.595 1.48764C105.542 2.27419 107.835 4.47848 109.759 8.38212C110.034 8.95504 110.167 9.13954 110.195 9.0133C110.233 8.80938 109.949 2.82769 109.882 2.49753C109.835 2.24506 108.006 1.42937 106.006 0.759348L104.689 0.312663L100.036 0.322373H95.3831L94.5397 0.652532Z" fill="white"/>
<path d="M113.9 0.652781C114.099 0.837281 114.317 1.11889 114.374 1.26454C114.45 1.45876 114.478 5.16818 114.459 15.0923L114.431 28.6483L114.194 28.9202C114.061 29.0658 113.768 29.3086 113.54 29.4542L113.114 29.7358L116.336 29.7261C118.099 29.7261 119.482 29.697 119.406 29.6679C119.094 29.5513 118.43 28.9104 118.307 28.6094C118.203 28.3472 118.174 27.1528 118.174 22.2102V16.1411H119.909C121.605 16.1411 121.643 16.1411 122.202 16.4227C122.818 16.714 123.443 17.3549 123.993 18.2191C124.164 18.491 124.382 18.8406 124.486 19.0057C124.761 19.4427 125.424 20.5885 126.419 22.3461C126.495 22.4821 126.94 23.2492 127.405 24.0552C128.201 25.4244 128.409 25.7837 128.845 26.4828C128.94 26.6382 129.063 26.8421 129.12 26.9295C129.888 28.1822 130.646 28.9493 131.508 29.3765L132.152 29.6873L134.664 29.7067C136.843 29.7261 137.128 29.7164 136.796 29.5999C136.246 29.4251 135.848 29.192 135.45 28.8328C134.958 28.3861 133.356 26.3663 132.759 25.4147C132.617 25.201 132.219 24.5698 131.859 24.0066C131.499 23.4434 131.167 22.9093 131.11 22.8219C131.006 22.6374 129.812 20.8021 128.883 19.3941C128.561 18.9086 128.059 18.122 127.746 17.6462C126.883 16.2867 125.983 15.2963 125.405 15.0632C125.159 14.9758 125.111 14.7816 125.32 14.7816C125.528 14.7816 127.035 13.9659 127.556 13.5678C128.049 13.1988 129.158 12.0335 129.423 11.6063C129.518 11.4509 129.613 11.315 129.641 11.2858C130.011 10.9265 130.646 9.50879 130.826 8.61542C131.309 6.1975 130.437 3.76986 128.476 2.13849C127.755 1.53644 126.353 0.846991 125.244 0.555675L124.315 0.312912H118.923H113.531L113.9 0.652781ZM123.396 1.92486C124.979 2.22589 126.173 3.13868 126.846 4.54671C127.755 6.46939 127.661 8.66397 126.58 10.8488C126.049 11.9267 124.96 12.9949 123.737 13.6261C122.704 14.1698 122.42 14.2281 120.24 14.267L118.174 14.3155V8.0425V1.76949H120.392C122.012 1.76949 122.818 1.80833 123.396 1.92486Z" fill="white"/>
<path d="M140.483 0.749886C140.805 1.08975 140.919 1.28397 140.966 1.60441C140.994 1.82776 141.013 7.97453 140.994 15.2671L140.966 28.522L140.729 28.8425C140.606 29.0173 140.303 29.2892 140.075 29.4542L139.658 29.7358H142.871C145.865 29.7358 146.064 29.7164 145.78 29.5805C145.221 29.2989 144.832 28.8133 144.719 28.2793C144.577 27.5898 144.577 1.97341 144.719 1.44904C144.814 1.07033 145.164 0.63336 145.515 0.429438C145.657 0.342044 145.031 0.322622 142.88 0.312912H140.047L140.483 0.749886Z" fill="white"/>
<path d="M57.9408 32.2311C57.6755 32.2699 57.5902 32.3767 57.1448 33.1633C56.8794 33.6585 56.3582 34.581 55.9886 35.2219C55.6285 35.8628 55.2589 36.5134 55.1642 36.6785C54.804 37.3485 53.9038 38.7371 53.3825 39.4363C52.8613 40.1355 52.1885 40.9609 50.9849 42.3592C50.6817 42.7088 50.2931 43.1846 50.1131 43.4273C49.4971 44.2624 48.6821 44.5635 48.2367 44.1071C47.6112 43.4662 48.0756 42.5922 49.6866 41.3493C50.4542 40.7472 50.6912 40.3782 50.5111 40.0384C50.4353 39.8927 50.3216 39.8344 50.0752 39.8344C49.4308 39.8344 49.0327 40.184 48.5305 41.1842C48.322 41.6115 47.9524 42.0679 47.2322 42.7962C46.673 43.3594 46.2087 43.8158 46.1897 43.8158C46.1802 43.8158 46.3224 43.5439 46.5214 43.204C46.9668 42.4466 47.3838 41.3784 47.3838 40.99C47.3838 40.3977 46.9384 39.8344 46.4645 39.8344C45.7064 39.8344 44.9862 40.4268 42.8824 42.7767C42.4654 43.2428 41.9536 43.7478 41.7451 43.8934C41.2808 44.2333 40.5606 44.5246 40.2857 44.4761C40.0962 44.4469 40.0962 44.4275 40.4184 43.9614C41.5935 42.2718 41.7072 40.6501 40.6932 40.0384C39.9351 39.582 38.3146 40.0092 36.9784 41.0191C36.3719 41.4852 35.102 42.767 34.7892 43.2331C34.4386 43.7769 33.4435 44.4081 32.7423 44.5343L32.3632 44.612L32.7044 44.2333C34.0406 42.767 34.9693 40.5724 34.4955 39.9801C34.3344 39.7762 33.8037 39.7956 33.6047 40.0092C33.5004 40.1355 33.4246 40.5045 33.3583 41.2522C33.273 42.1844 33.2161 42.4077 32.8749 43.1069C32.3443 44.2139 31.7283 44.9325 30.7995 45.5539C30.0698 46.0395 29.2738 46.3114 28.9326 46.1851C28.5251 46.0492 28.5157 45.4666 28.9042 44.6897C29.3401 43.806 30.3636 42.0582 31.0554 41.0191C31.8988 39.747 31.8988 39.7956 31.1691 39.883C30.3068 39.9898 30.1551 40.0675 29.9372 40.5336C28.98 42.6311 26.2128 45.787 24.9998 46.1657C24.6397 46.2725 24.6018 46.2628 24.4312 46.0492C24.2985 45.8841 24.2701 45.7482 24.3175 45.5248C24.4028 45.0976 25.104 43.8352 26.0422 42.3786C26.2602 42.0484 26.4403 41.7571 26.4403 41.728C26.4403 41.7086 26.7151 41.2619 27.0562 40.7472C27.3974 40.2229 27.6533 39.7859 27.6343 39.7568C27.6059 39.7373 27.2932 39.747 26.9331 39.7859L26.2697 39.8539L25.1893 40.9803C24.0237 42.1941 23.4077 42.9418 23.4077 43.1263C23.4077 43.3497 23.5878 43.2234 24.0332 42.6699C24.5449 42.0582 25.2462 41.3202 25.54 41.0968C25.72 40.9609 25.72 40.9609 25.5874 41.1551C25.5115 41.2716 25.1799 41.7377 24.8482 42.1747C23.5309 43.9614 23.1898 45.3889 23.891 46.156C24.1564 46.4473 24.1943 46.457 24.7724 46.4182C25.5021 46.3696 25.8432 46.156 26.9615 45.049L27.7196 44.2916L27.767 45.0004C27.8523 46.1657 28.2314 46.4959 29.3686 46.4182C30.1172 46.3599 30.9038 45.9715 31.6714 45.2821C31.9178 45.049 32.2021 44.8839 32.3348 44.8839C32.6759 44.8839 33.7373 44.4955 34.1638 44.2139C34.3723 44.0779 34.7324 43.7575 34.9693 43.4953L35.3958 43.0389V44.2236C35.3958 45.486 35.4716 45.787 35.917 46.1948C36.1634 46.4279 37.111 46.5056 37.6891 46.3502C38.0871 46.2434 39.3665 45.2821 39.6224 44.9033C39.7266 44.7577 39.9067 44.7091 40.4184 44.6703C40.788 44.6412 41.2618 44.5441 41.4608 44.4469C41.8399 44.2624 42.7118 43.4079 44.2754 41.6697C45.1757 40.6793 45.8012 40.2132 46.2561 40.184C46.7773 40.1646 46.8057 40.4074 46.4077 41.1939C46.2182 41.5726 45.8959 42.1067 45.6969 42.3883C45.4979 42.6602 45.3084 42.9321 45.2894 42.9904C45.2705 43.0389 44.9957 43.4759 44.6924 43.9614C44.3797 44.4372 43.9437 45.1364 43.7068 45.5151C43.4699 45.8841 43.233 46.2531 43.1761 46.3308C43.0908 46.4473 43.1951 46.457 43.8774 46.3988C44.3133 46.3599 44.7019 46.2919 44.7303 46.2531C44.9293 45.9229 46.1234 44.4275 46.6067 43.8837C47.4596 42.9321 47.9808 42.4272 47.9145 42.6019C47.7534 43.0292 47.6965 43.6604 47.7818 43.9711C47.8955 44.4178 48.303 44.6314 48.919 44.5732C49.5255 44.5052 49.8667 44.243 50.6627 43.2331C51.0134 42.7767 51.5725 42.097 51.8947 41.728C52.2169 41.3493 52.596 40.9123 52.7287 40.7569C53.0224 40.4074 52.0842 42.0193 50.8523 43.9808C50.6153 44.3693 50.4163 44.7091 50.4163 44.7383C50.4163 44.7674 50.3405 44.9131 50.2363 45.0587C49.8288 45.6608 49.4687 46.2822 49.4687 46.3696C49.4687 46.4667 50.7196 46.3988 50.9944 46.2919C51.0702 46.2628 51.2029 46.0783 51.2977 45.8744C51.4398 45.5637 51.6767 45.1461 52.6055 43.573C52.6907 43.4079 53.0509 42.7767 53.4015 42.165C53.7427 41.5532 54.2449 40.6793 54.5103 40.2229C54.7756 39.7665 55.0599 39.2615 55.1547 39.1061C55.4864 38.5235 56.2445 37.1835 56.4435 36.8436C56.5572 36.6397 56.9363 35.9794 57.2869 35.3676C58.3768 33.4837 58.9454 32.4641 59.0022 32.3088C59.0496 32.1922 58.9833 32.1631 58.6516 32.1825C58.4242 32.1825 58.1019 32.2117 57.9408 32.2311ZM40.6269 40.3782C41.1292 41.0871 40.6553 43.0001 39.6508 44.3595C39.0538 45.1558 38.3241 45.7676 37.6323 46.0395C36.9878 46.3017 36.7604 46.2919 36.4856 46.0006C36.2866 45.787 36.2771 45.6996 36.3245 45.0587C36.4666 43.2428 38.1629 40.7084 39.5655 40.2034C39.8782 40.0966 40.4942 40.1937 40.6269 40.3782Z" fill="#EDC684"/>
<path d="M125.519 32.231C125.206 32.2601 125.102 32.3281 124.931 32.6C124.808 32.7845 124.713 32.9787 124.713 33.037C124.713 33.0855 124.675 33.1341 124.638 33.1341C124.59 33.1341 124.505 33.2506 124.439 33.3962C124.372 33.5516 124.135 33.9498 123.917 34.2993C123.699 34.6489 123.491 34.9985 123.453 35.0762C123.415 35.1539 123.131 35.6394 122.818 36.1443C122.505 36.6493 122.212 37.1348 122.183 37.2125C122.107 37.3776 121.368 38.4943 121.074 38.873C120.961 39.0187 120.79 39.2517 120.686 39.4071C120.278 39.9897 118.686 41.9512 118.127 42.5533C117.805 42.9029 117.284 43.4661 116.98 43.8059C115.9 45.0198 115.085 45.6412 114.09 46.0199C113.029 46.4181 112.432 46.1559 112.394 45.2722C112.337 44.2041 112.356 44.1458 112.801 44.039C115.161 43.4272 116.867 42.3882 117.123 41.4074C117.284 40.8151 117.123 40.2907 116.715 40.0383C115.853 39.4945 114.194 40.1062 112.545 41.5822C112.062 42.0192 111.238 42.9126 111.124 43.1165C110.858 43.6312 109.674 44.3983 108.944 44.5342L108.575 44.6022L108.944 44.1361C109.532 43.3981 109.731 43.0777 110.224 42.1066C110.612 41.3492 110.688 41.1064 110.688 40.6694C110.688 39.844 110.176 39.5527 109.712 40.1159C109.522 40.349 109.475 40.5432 109.418 41.2909C109.266 43.3884 107.76 45.4567 105.931 46.0879C105.324 46.3016 104.945 46.2433 104.793 45.9034C104.623 45.5053 104.793 45.0392 105.523 43.9516C106.66 42.2523 106.84 41.8444 106.84 41.0579C106.84 40.4267 106.821 40.3781 106.537 40.1159C106.158 39.7664 105.836 39.7567 105.144 40.0771C104.519 40.3587 103.4 41.4657 102.197 42.9903C101.278 44.1458 99.9129 45.5733 99.4106 45.9034C98.9368 46.2142 98.5861 46.2918 98.4155 46.1462C98.2165 45.9714 98.2355 45.7286 98.5293 45.0974C98.823 44.4371 99.7044 42.8155 99.7897 42.7475C99.8276 42.7184 99.9318 42.5436 100.027 42.3591C100.245 41.9221 101.391 40.1451 101.505 40.0674C101.552 40.0383 101.59 39.9703 101.59 39.9217C101.59 39.8149 100.662 39.8926 100.292 40.0383C100.178 40.0771 99.9318 40.3975 99.7423 40.7471C99.5528 41.0967 99.3632 41.4074 99.3158 41.4366C99.2779 41.456 99.2211 41.2132 99.2021 40.8831C99.1642 40.3684 99.1263 40.2616 98.8799 40.0674C98.5293 39.7761 97.9986 39.7664 97.0983 40.0383C95.7431 40.4461 94.6438 41.2715 93.1844 42.9514C92.6821 43.5438 92.1514 44.0876 91.9998 44.1652C91.5828 44.3886 91.0995 44.34 90.8152 44.0487C90.6067 43.8351 90.5783 43.738 90.6257 43.4078C90.7015 42.8252 91.109 42.3008 92.1135 41.4948C93.0612 40.7471 93.3266 40.3684 93.156 40.0285C93.0802 39.8926 92.957 39.8343 92.72 39.8343C92.0851 39.8343 91.5734 40.2713 91.1659 41.1647C90.9005 41.7182 90.7015 41.9609 89.6022 43.0388C89.0147 43.6117 88.8251 43.7574 88.9673 43.5243C90.0192 41.8347 90.2182 40.349 89.4695 39.9314C88.9673 39.6595 88.1238 40.0188 87.2615 40.8637C86.5602 41.5531 85.4419 42.8349 85.3661 43.0582C85.2524 43.3495 83.3192 45.3014 82.7505 45.6995C82.1914 46.0782 81.5944 46.3016 81.367 46.2142C80.9689 46.0588 81.0826 45.5441 81.8029 44.2138C82.0777 43.7185 82.362 43.1942 82.4378 43.0485C82.5136 42.9126 82.7316 42.5436 82.9401 42.2328C83.1391 41.9221 83.3002 41.6405 83.3002 41.6114C83.3002 41.5919 83.4234 41.388 83.575 41.1647C83.8025 40.8248 84.1626 40.2616 84.6743 39.4362C84.7217 39.3488 84.9397 38.9895 85.1482 38.6302L85.5272 37.9893H87.0245C87.9343 37.9893 88.5124 37.9505 88.5124 37.8922C88.5124 37.7466 88.1807 37.698 86.9203 37.6689L85.7547 37.6495L86.2475 36.8726C86.5128 36.4454 86.8445 35.9404 86.9677 35.7559L87.1856 35.416L86.6455 35.3869C85.7357 35.3384 85.7641 35.3092 84.7122 37.1348C84.409 37.6786 84.3805 37.698 83.992 37.698C83.774 37.698 83.5371 37.7271 83.4518 37.7563C83.158 37.8728 83.3002 37.9893 83.7266 37.9893C83.9636 37.9893 84.1531 38.0282 84.1531 38.0767C84.1531 38.2418 82.163 40.8345 81.1679 41.9707C80.315 42.9417 80.0402 43.3204 80.116 43.4078C80.1824 43.4758 80.4003 43.2524 81.5754 41.9221C82.1725 41.2618 82.2672 41.2229 81.8218 41.8444C81.6986 42.0095 81.5944 42.1746 81.5944 42.194C81.5944 42.2231 81.4333 42.495 81.2343 42.8058C80.0023 44.7576 80.1255 46.4569 81.4996 46.4278C82.0777 46.4181 82.4283 46.2724 83.1012 45.7772C83.7646 45.2722 85.3472 43.6312 85.6883 43.0874C86.039 42.5339 87.6026 40.8539 88.1144 40.4947C88.3797 40.3102 88.664 40.1936 88.882 40.1839C89.2042 40.1742 89.2231 40.1936 89.2516 40.4947C89.2895 40.8539 89.28 40.8831 87.8016 43.1845C85.9158 46.1268 85.7736 46.3889 85.9252 46.4278C86.0105 46.4375 86.3422 46.4278 86.6739 46.3889L87.2709 46.3307L88.2376 45.0974C89.1378 43.9613 90.5973 42.3397 90.5973 42.4756C90.5973 42.5047 90.5309 42.6892 90.4551 42.8737C90.1234 43.6991 90.4077 44.4468 91.0901 44.5634C91.5544 44.6313 92.0377 44.5342 92.3031 44.3012C92.4168 44.2041 92.54 44.107 92.5684 44.0876C92.6063 44.0681 92.7674 43.9031 92.9285 43.7088L93.2223 43.3593V44.2915C93.2223 45.3305 93.4024 45.8452 93.8857 46.2433C94.1131 46.4181 94.2458 46.4472 94.7291 46.4181C95.4588 46.3695 95.98 46.0394 97.0414 44.9518C97.2404 44.7576 97.4205 44.5925 97.4584 44.5925C97.4868 44.5925 97.5153 44.7576 97.5153 44.9518C97.5153 45.5053 97.7901 46.2044 98.0554 46.3307C98.3682 46.4763 98.8799 46.4666 99.2495 46.3016C99.9129 46.0102 102.292 43.6117 102.538 42.9903C102.642 42.7184 104.49 40.8054 104.964 40.4849C105.646 40.0188 106.319 40.0383 106.205 40.5335C106.139 40.786 106.025 40.9705 105.068 42.2328C104.187 43.4175 103.931 43.9904 103.931 44.7867C103.922 45.5247 104.177 46.1365 104.575 46.321C104.708 46.3889 105.068 46.4375 105.381 46.4375C105.826 46.4375 106.054 46.3695 106.547 46.1073C106.888 45.9326 107.219 45.7286 107.295 45.6704C108.025 45.0489 108.271 44.8838 108.489 44.8838C108.859 44.8838 109.863 44.5537 110.28 44.2915C110.479 44.1749 110.783 43.9419 110.953 43.7768L111.256 43.4855V43.971C111.256 45.0489 111.806 46.1268 112.47 46.3501C113 46.5249 114.118 46.3987 114.744 46.0879C115.284 45.8257 116.146 45.1363 116.743 44.4954C116.914 44.3109 117.359 43.8254 117.739 43.4272C118.108 43.0194 118.667 42.3979 118.98 42.0192C119.293 41.6502 119.643 41.2521 119.757 41.1258C119.871 41.0093 120.013 40.8248 120.06 40.7374C120.117 40.6403 120.165 40.6112 120.165 40.6597C120.165 40.7471 119.776 41.4172 119.406 41.9707C118.838 42.8155 118.402 43.5632 118.212 44.0293C117.833 44.9518 117.947 46.1947 118.411 46.3792C118.667 46.4763 119.35 46.4472 119.7 46.321C120.202 46.1559 120.781 45.6995 121.643 44.845C122.629 43.8545 123.216 43.1456 123.15 43.0291C123.121 42.9805 122.572 43.4855 121.937 44.1458C120.724 45.4082 120.013 45.9714 119.397 46.1559C118.942 46.3016 118.743 46.1656 118.743 45.7189C118.743 45.4373 119.549 43.67 119.823 43.3301C119.89 43.2524 120.089 42.9223 120.259 42.6018C120.439 42.2814 120.648 41.9124 120.733 41.7764C120.818 41.6405 120.999 41.3589 121.131 41.1453C121.254 40.9316 121.539 40.4849 121.757 40.1451C121.975 39.8149 122.155 39.5139 122.155 39.475C122.155 39.4459 122.249 39.2808 122.373 39.1158C122.496 38.9507 122.629 38.7468 122.657 38.6691C122.723 38.5137 123.993 36.4551 124.116 36.29C124.154 36.2317 124.363 35.9113 124.562 35.5617C124.77 35.2121 124.969 34.9111 124.998 34.882C125.036 34.8528 125.121 34.7266 125.187 34.5906C125.301 34.3673 125.879 33.4254 126.381 32.6388C126.505 32.4543 126.609 32.2698 126.609 32.231C126.609 32.163 126.239 32.163 125.519 32.231ZM98.4914 40.1159C98.8515 40.2616 98.9936 40.7277 98.8609 41.3783C98.643 42.4368 97.9228 43.6117 96.7192 44.845C95.601 46.0005 94.7007 46.4861 94.3974 46.1073C93.7435 45.3014 94.9281 42.4173 96.5297 40.9219C97.3068 40.1839 97.9701 39.912 98.4914 40.1159ZM116.355 40.2422C116.421 40.3102 116.469 40.4947 116.469 40.65C116.459 41.5628 115.341 42.7863 113.957 43.4078C113.398 43.6506 112.678 43.8545 112.612 43.7768C112.422 43.5923 113.275 42.2037 114.118 41.3006C115.009 40.3587 116.014 39.8926 116.355 40.2422Z" fill="#EDC684"/>
<path d="M72.1655 33.4643C71.7012 33.6876 71.2273 34.1343 70.8198 34.7461C70.3365 35.455 70.0617 37.1155 70.2228 38.271C70.2702 38.5915 70.2512 38.6206 69.8911 38.7468C67.8062 39.514 66.7638 40.0869 65.9867 40.8929C65.1907 41.6988 64.8874 42.3786 64.84 43.4176C64.7832 44.6023 64.9159 44.9907 65.5603 45.6607C66.0246 46.1268 66.1952 46.2337 66.8112 46.4182C67.6925 46.6803 68.2706 46.69 69.1804 46.4376C70.3176 46.1171 71.2084 45.5636 72.0518 44.6508C72.2603 44.4178 72.4404 44.3013 72.4877 44.3595C72.6015 44.476 72.7815 45.719 72.7815 46.4182C72.7815 47.6514 72.4688 48.6224 71.7012 49.778C70.6493 51.3511 68.8297 52.6038 67.1144 52.9436C64.9632 53.3806 63.1248 52.2736 63.1153 50.5354C63.1153 49.8945 63.2859 49.477 63.7218 49.0206C64.0819 48.6516 65.077 48.0884 65.3613 48.0884C65.456 48.0884 65.5982 48.0495 65.674 47.9913C65.9583 47.8068 65.4845 47.7679 64.9727 47.933C63.8545 48.2923 63.011 49.1565 62.831 50.1373C62.4993 51.8949 63.5986 53.3806 65.5982 53.8661C66.3753 54.0506 66.7733 54.0506 67.8062 53.8273C70.4976 53.2544 72.592 51.1278 73.1701 48.3505C73.2648 47.865 73.3501 47.2824 73.3501 47.0396C73.3501 46.4861 72.99 44.3789 72.8668 44.2527C72.7436 44.1265 72.7626 43.8254 72.9047 43.6701C72.9616 43.5924 73.0942 43.4273 73.1795 43.3108C73.2743 43.1845 73.5681 42.7961 73.8429 42.4465C74.1177 42.097 74.4305 41.6891 74.5347 41.5435C74.639 41.3978 74.8474 41.1162 74.9991 40.922C75.1412 40.7181 75.5582 40.1646 75.9088 39.6887C76.6764 38.6497 77.6052 37.7078 78.1453 37.4262L78.5434 37.2223L78.7613 37.4553C78.8845 37.5913 79.0646 37.7855 79.1593 37.8923C79.3963 38.1836 79.927 38.1545 80.2397 37.834C80.4482 37.6204 80.4766 37.5233 80.4292 37.1446C80.2871 35.7851 78.477 36.2027 76.847 37.9506C76.4111 38.4167 75.7098 39.31 75.435 39.7276C75.2928 39.9606 74.421 41.1939 74.1651 41.5338C74.0798 41.6406 73.7102 42.1164 73.3406 42.5922L72.6583 43.4467L72.4877 43.2234C72.393 43.0971 72.3077 42.9612 72.3077 42.9126C72.3077 42.8738 72.1276 42.4563 71.9191 41.9901C71.3505 40.7763 70.8957 39.5916 70.8293 39.1741L70.7725 38.8148L71.379 38.5817C72.6868 38.0574 73.4733 37.5816 74.1083 36.931C74.5252 36.494 74.7621 36.1638 74.8474 35.8919C75.0654 35.1345 74.9517 34.2023 74.5916 33.775C74.1083 33.2021 72.9995 33.0565 72.1655 33.4643ZM74.0893 33.7847C74.9801 34.4645 74.8285 35.9502 73.7671 36.9115C73.3312 37.3 72.1561 37.9894 71.9191 37.9894C71.8623 37.9894 71.6822 38.0477 71.5211 38.1254C70.8672 38.4264 70.5924 38.4749 70.5355 38.3293C70.5071 38.2516 70.5071 37.6884 70.5261 37.0863C70.564 36.1735 70.6114 35.9114 70.8198 35.4355C71.1231 34.7655 72.0423 33.775 72.5067 33.6294C72.99 33.474 73.786 33.5517 74.0893 33.7847ZM70.4882 39.31C70.5261 39.5334 70.9241 40.6113 71.161 41.1453C71.9191 42.8155 72.194 43.4564 72.2603 43.7283C72.3077 43.9323 72.2319 44.0585 71.7201 44.5537C70.3839 45.8647 68.9624 46.4667 67.6167 46.2919C67.1713 46.2434 67.0386 46.1657 66.688 45.8064C66.3468 45.4568 66.2521 45.282 66.1478 44.7868C65.892 43.5438 66.3847 42.0484 67.4272 40.9511C67.9389 40.4073 68.7918 39.7373 68.9814 39.7373C69.0193 39.7373 69.0951 39.6887 69.1614 39.6208C69.3036 39.4751 70.2418 39.0673 70.365 39.0964C70.4218 39.1158 70.4692 39.2032 70.4882 39.31Z" fill="#EDC684"/>
<path d="M57.5144 40.0285C57.3343 40.1256 57.0121 40.4169 56.8131 40.6791C56.254 41.3783 55.5338 42.0483 55.0978 42.2619C54.8514 42.3882 54.5198 42.4561 54.1407 42.4561C53.5342 42.4561 53.2783 42.6018 53.392 42.8931C53.4868 43.1553 53.7522 43.1747 54.1312 42.9514C54.823 42.5435 55.1263 42.9319 54.7662 43.767C54.3776 44.641 54.5956 45.8937 55.1926 46.2918C55.5527 46.5346 56.273 46.4472 56.7847 46.0879C57.6092 45.5247 59.7035 43.2718 59.7035 42.9514C59.7035 42.8931 59.6372 42.8445 59.5614 42.8445C59.4856 42.8445 59.4192 42.8834 59.4192 42.9222C59.4192 43.2135 56.9648 45.7189 56.3582 46.049L55.9128 46.2918L55.7044 46.0782L55.5053 45.8645L55.7138 45.3499C55.837 45.0683 55.9507 44.5924 55.9792 44.3011C56.0171 43.835 55.9887 43.7185 55.7612 43.3592C55.6191 43.1359 55.3727 42.9028 55.2305 42.8348C55.022 42.7474 54.9841 42.6989 55.0694 42.5921C55.1263 42.5144 55.2495 42.4561 55.3348 42.4561C55.6285 42.4561 56.4625 41.8152 56.87 41.2812C57.3723 40.6111 57.3438 40.6403 57.5997 40.5626C57.7703 40.514 57.8082 40.5431 57.8082 40.6985C57.8082 40.9704 58.0641 41.1938 58.3863 41.1938C58.8696 41.1938 59.0402 41.0384 59.0402 40.6111C59.0402 39.912 58.282 39.6109 57.5144 40.0285Z" fill="#EDC684"/>
</g>
<defs>
<clipPath id="clip0_11_5939">
<rect width="146" height="54" fill="white"/>
</clipPath>
</defs>
</svg>
