<svg width="32" height="28" viewBox="0 0 32 28" fill="none" xmlns="http://www.w3.org/2000/svg">
<path d="M15.5623 5.16247L16 5.95533L16.4377 5.16248C16.9459 4.24205 17.8012 2.99234 19.0725 2.01785C20.3902 1.0078 21.8757 0.5 23.5 0.5C28.0361 0.5 31.5 4.16993 31.5 9.13804C31.5 11.7969 30.4301 14.0568 28.4743 16.3959C26.5059 18.75 23.6796 21.1394 20.2176 24.0636L20.5402 24.4456L20.2175 24.0636C19.0451 25.054 17.7144 26.178 16.3308 27.3773L16.3306 27.3775C16.2401 27.4559 16.1229 27.5 16 27.5C15.8771 27.5 15.7599 27.4559 15.6695 27.3775L15.6692 27.3772C14.2864 26.1787 12.9563 25.0552 11.785 24.0658L11.7832 24.0643L11.4606 24.4462L11.7832 24.0643C8.32077 21.1397 5.49425 18.7502 3.52575 16.3959C1.56992 14.0568 0.5 11.7969 0.5 9.13804C0.5 4.16993 3.96386 0.5 8.5 0.5C10.1243 0.5 11.6098 1.0078 12.9275 2.01785L13.212 1.64673L12.9275 2.01785C14.1988 2.99234 15.0541 4.242 15.5623 5.16247Z" stroke="#0B2629"/>
</svg>
