<svg width="259" height="153" viewBox="0 0 259 153" fill="none" xmlns="http://www.w3.org/2000/svg">
<path d="M70.7932 100.721L67.8288 143.249C72.07 143.249 73.9069 141.39 76.1096 139.159L95.9938 119.776L137.196 150.552C144.752 154.848 150.076 152.586 152.115 143.462L179.16 14.2038L179.167 14.1962C181.564 2.80269 175.127 -1.65265 167.765 1.14241L8.79596 63.2201C-2.05337 67.5155 -1.8891 73.6844 6.95165 76.4795L47.5937 89.3733L141.997 29.1235C146.44 26.1228 150.479 27.783 147.157 30.7837L70.7932 100.721Z" fill="white"/>
<path d="M241.879 39.5039H203.155C198.877 39.509 194.776 41.2106 191.751 44.2354C188.726 47.2602 187.025 51.3612 187.02 55.6389V81.4549C187.024 85.1731 188.311 88.776 190.662 91.6563C193.013 94.5366 196.286 96.5183 199.928 97.2672V107.271C199.928 107.855 200.086 108.428 200.386 108.93C200.686 109.431 201.117 109.841 201.632 110.117C202.147 110.392 202.728 110.523 203.311 110.495C203.895 110.466 204.46 110.28 204.946 109.956L223.485 97.5899H241.879C246.157 97.5848 250.258 95.8832 253.283 92.8585C256.307 89.8337 258.009 85.7326 258.014 81.4549V55.6389C258.009 51.3612 256.307 47.2602 253.283 44.2354C250.258 41.2106 246.157 39.509 241.879 39.5039ZM235.425 78.2279H209.609C208.753 78.2279 207.932 77.8879 207.327 77.2828C206.722 76.6776 206.382 75.8568 206.382 75.0009C206.382 74.1451 206.722 73.3243 207.327 72.7191C207.932 72.1139 208.753 71.7739 209.609 71.7739H235.425C236.281 71.7739 237.102 72.1139 237.707 72.7191C238.312 73.3243 238.652 74.1451 238.652 75.0009C238.652 75.8568 238.312 76.6776 237.707 77.2828C237.102 77.8879 236.281 78.2279 235.425 78.2279ZM241.879 65.3199H203.155C202.299 65.3199 201.478 64.9799 200.873 64.3748C200.268 63.7696 199.928 62.9488 199.928 62.0929C199.928 61.2371 200.268 60.4163 200.873 59.8111C201.478 59.2059 202.299 58.8659 203.155 58.8659H241.879C242.735 58.8659 243.556 59.2059 244.161 59.8111C244.766 60.4163 245.106 61.2371 245.106 62.0929C245.106 62.9488 244.766 63.7696 244.161 64.3748C243.556 64.9799 242.735 65.3199 241.879 65.3199Z" fill="white"/>
</svg>
