<svg width="443" height="91" viewBox="0 0 443 91" fill="none" xmlns="http://www.w3.org/2000/svg">
<path d="M52.8763 52.2647C51.9117 52.5616 50.6874 52.8584 49.2033 53.1552C47.7935 53.3778 46.3094 53.6004 44.7512 53.823C43.2671 54.0456 41.8201 54.2311 40.4103 54.3795C39.0746 54.5279 37.9987 54.6392 37.1825 54.7134C36.8115 54.7876 36.5518 54.9731 36.4034 55.2699C36.3292 55.5668 36.292 55.9007 36.292 56.2717C36.292 58.2752 35.9952 60.3528 35.4016 62.5047C34.8822 64.5824 34.1773 66.5859 33.2868 68.5151C32.4706 70.3702 31.5431 72.0768 30.5042 73.6351C29.4654 75.1192 28.4266 76.3064 27.3877 77.1968C26.1263 78.3099 24.8648 79.1632 23.6034 79.7568C22.4162 80.3504 20.9692 80.6473 19.2625 80.6473C17.3333 80.6473 15.8121 80.0536 14.6991 78.8664C13.586 77.6791 13.0295 76.1209 13.0295 74.1916C13.0295 73.3754 13.1037 72.5963 13.2521 71.8542C11.8423 72.6705 10.284 73.4867 8.57736 74.3029C6.8707 75.1192 5.20114 75.5273 3.56868 75.5273C2.67825 75.5273 1.93623 75.2676 1.3426 74.7481C0.823186 74.1545 0.563477 73.3012 0.563477 72.1881C0.563477 70.8525 0.93449 69.3313 1.67652 67.6247C2.49275 65.8438 3.42028 64.1001 4.45912 62.3934C5.57215 60.6125 6.64809 59.0172 7.68693 57.6073C8.72577 56.1233 9.5049 55.0473 10.0243 54.3795C10.2469 54.0827 10.5066 53.7859 10.8034 53.4891C11.1745 53.1181 11.5826 52.8584 12.0278 52.71C12.6214 52.5616 13.2892 52.4131 14.0313 52.2647C14.7733 52.0421 15.3669 51.8937 15.8121 51.8195C16.1089 51.8195 16.2573 51.9308 16.2573 52.1534C16.2573 52.3018 16.0347 52.4502 15.5895 52.5987C15.2185 52.7471 14.6991 53.1552 14.0313 53.823C12.9182 55.0102 11.8052 56.4943 10.6921 58.2752C9.6533 59.9818 8.68867 61.7256 7.79823 63.5064C6.9078 65.2131 6.20288 66.8456 5.68346 68.4038C5.16404 69.9621 4.90433 71.1864 4.90433 72.0768C4.90433 72.5221 5.05274 72.9302 5.34955 73.3012C5.64636 73.6722 6.05447 73.8577 6.57389 73.8577C6.9449 73.8577 7.68693 73.6722 8.79997 73.3012C9.98721 72.9302 11.5455 72.1139 13.4747 70.8525C14.1426 67.9586 15.1814 65.1389 16.5912 62.3934C18.0011 59.5737 19.6336 57.0508 21.4886 54.8247C21.8596 54.3795 22.4904 53.7488 23.3808 52.9326C24.2712 52.1163 25.3101 51.7082 26.4973 51.7082C27.0909 51.7082 27.4248 51.9308 27.499 52.376C27.6474 52.7471 27.7216 53.0439 27.7216 53.2665C27.7216 53.6375 27.5732 54.3424 27.2764 55.3813C27.0538 56.4201 26.5344 57.6815 25.7182 59.1656C24.9019 60.5754 23.7889 62.1708 22.3791 63.9517C20.9692 65.6583 19.077 67.4763 16.7026 69.4055C16.7026 70.4444 16.7768 71.4832 16.9252 72.5221C17.0736 73.5609 17.3704 74.4884 17.8156 75.3047C18.2608 76.1209 18.8544 76.7887 19.5965 77.3081C20.3385 77.8276 21.3031 78.0873 22.4904 78.0873C24.2712 78.0873 25.8295 77.4565 27.1651 76.1951C28.5008 75.0078 29.5767 73.4867 30.3929 71.6316C31.2834 69.7766 31.9512 67.736 32.3964 65.5099C32.8416 63.2838 33.0642 61.1691 33.0642 59.1656C33.0642 57.3847 32.9529 55.9378 32.7303 54.8247C32.5819 53.7117 31.9141 53.081 30.7269 52.9326C30.43 52.6358 30.4671 52.4131 30.8382 52.2647C31.2834 52.2647 31.8399 52.1163 32.5077 51.8195C33.1755 51.4485 33.6579 51.263 33.9547 51.263C34.1031 51.263 34.2515 51.3743 34.3999 51.5969C34.5483 51.7453 34.8451 51.9308 35.2903 52.1534C35.8097 52.3018 36.5518 52.4873 37.5164 52.71C38.481 52.8584 39.8538 52.9326 41.6346 52.9326C43.7865 52.9326 45.9755 52.7842 48.2016 52.4874C50.4277 52.1163 51.9859 51.7824 52.8763 51.4856C53.1732 51.4114 53.3587 51.4856 53.4329 51.7082C53.5813 51.9308 53.3958 52.1163 52.8763 52.2647ZM24.939 55.4926C24.939 55.3442 24.8648 55.0473 24.7164 54.6021C24.6422 54.1569 24.3825 53.9343 23.9373 53.9343C23.5663 53.9343 23.0469 54.2311 22.3791 54.8247C21.7112 55.4184 21.0063 56.3088 20.2643 57.496C19.5965 58.6833 18.9286 60.2044 18.2608 62.0595C17.593 63.8404 17.0736 65.9551 16.7026 68.4038C19.6707 66.0293 21.7854 63.6919 23.0469 61.3917C24.3083 59.0172 24.939 57.0508 24.939 55.4926Z" fill="#EDC684"/>
<path d="M80.3632 56.6056C79.1018 58.3123 77.5435 59.8705 75.6884 61.2804C73.9076 62.616 71.867 63.2838 69.5667 63.2838C68.3053 63.2838 67.0438 62.987 65.7824 62.3934C64.5951 61.7256 63.6305 60.7609 62.8885 59.4995C62.3691 60.6867 61.7012 62.0595 60.885 63.6177C60.0688 65.1018 59.1041 66.6229 57.9911 68.1812C56.8781 69.6653 55.6166 71.038 54.2068 72.2995C52.8711 73.5609 51.4242 74.5997 49.8659 75.416C48.5303 76.0096 47.4172 76.3064 46.5268 76.3064C43.8555 76.3064 42.5199 75.1192 42.5199 72.7447C42.5199 71.409 42.7425 70.0363 43.1877 68.6264C43.7071 67.2166 44.3378 65.8438 45.0798 64.5082C45.8219 63.1725 46.601 61.9111 47.4172 60.7238C48.3077 59.5366 49.1239 58.572 49.8659 57.8299C51.4242 56.1233 53.205 54.6763 55.2085 53.4891C57.212 52.3018 59.3639 51.5969 61.6641 51.3743C61.8125 50.7807 62.0352 50.1129 62.332 49.3708C62.6288 48.5546 63.1482 48.0723 63.8902 47.9239C64.2612 47.8497 64.6322 47.7755 65.0033 47.7013C65.3743 47.6271 65.7082 47.5158 66.005 47.3674C66.2276 47.219 66.4502 47.219 66.6728 47.3674C66.8954 47.4416 66.9325 47.6271 66.7841 47.9239C66.2647 48.7401 65.8566 49.779 65.5598 51.0404C65.3372 52.3018 65.2259 53.6746 65.2259 55.1586C65.2259 57.2363 65.5969 58.943 66.3389 60.2786C67.1551 61.6143 68.5279 62.2821 70.4572 62.2821C72.3864 62.2821 74.1302 61.6514 75.6884 60.3899C77.2467 59.1285 78.5452 57.7557 79.5841 56.2717C79.7325 55.9007 79.9551 55.7894 80.2519 55.9378C80.6229 56.0862 80.66 56.3088 80.3632 56.6056ZM61.998 57.3847C61.8496 56.7169 61.7383 55.9378 61.6641 55.0473C61.5899 54.1569 61.5528 53.3036 61.5528 52.4874C61.5528 52.1163 61.4044 51.9308 61.1076 51.9308C60.2914 51.9308 59.4381 52.2276 58.5476 52.8213C57.6572 53.3407 56.7668 54.0827 55.8763 55.0473C54.9859 55.9378 54.0955 56.9766 53.205 58.1639C52.3146 59.3511 51.4984 60.5754 50.7563 61.8369C49.7917 63.4693 48.9013 65.2502 48.0851 67.1795C47.343 69.0345 47.0091 70.8154 47.0833 72.5221C47.0833 73.0415 47.1575 73.5238 47.3059 73.969C47.5285 74.4142 47.9738 74.6368 48.6416 74.6368C49.903 74.6368 51.2758 73.9319 52.7598 72.5221C54.2439 71.1122 55.6537 69.4798 56.9894 67.6247C58.325 65.6954 59.4381 63.7662 60.3285 61.8369C61.2931 59.9076 61.8496 58.4236 61.998 57.3847Z" fill="#EDC684"/>
<path d="M95.9458 52.8213C95.5005 53.3407 95.0182 53.9714 94.4988 54.7134C94.0536 55.4555 93.7568 56.012 93.6084 56.383C93.5342 56.6056 93.3858 56.7169 93.1632 56.7169C93.089 56.7169 92.9777 56.6056 92.8292 56.383C92.6808 56.1604 92.4582 55.9378 92.1614 55.7152C91.9388 55.4184 91.6049 55.1586 91.1597 54.936C90.7145 54.7134 90.0838 54.6021 89.2675 54.6021C88.3029 54.6021 87.2269 54.936 86.0397 55.6039C84.8525 56.2717 83.8136 57.0137 82.9232 57.8299C81.5133 59.0172 80.2519 60.3157 79.1389 61.7256C78.1 63.1354 77.0983 64.6195 76.1337 66.1777C75.169 67.6618 74.2415 69.22 73.3511 70.8525C72.4606 72.4108 71.496 74.0061 70.4572 75.6386C70.383 75.8612 70.1603 75.9725 69.7893 75.9725C69.6409 75.9725 69.307 75.7499 68.7876 75.3047C68.3424 74.8594 68.1198 74.5255 68.1198 74.3029C68.1198 73.8577 68.3795 73.1899 68.8989 72.2995C70.0861 70.2218 71.2734 68.1441 72.4606 66.0664C73.7221 63.9146 74.8722 61.9111 75.911 60.056C77.0241 58.201 77.9887 56.6056 78.8049 55.2699C79.6212 53.8601 80.1777 52.8213 80.4745 52.1534C80.8455 51.4856 81.1052 51.1517 81.2536 51.1517C81.402 51.1517 81.7731 51.3372 82.3667 51.7082C82.9603 52.0792 83.2571 52.5987 83.2571 53.2665C83.2571 53.4891 83.1087 53.8601 82.8119 54.3795C82.5893 54.8989 82.2925 55.4555 81.9215 56.0491C81.6247 56.5685 81.3278 57.0879 81.031 57.6073C80.7342 58.1267 80.5116 58.4978 80.3632 58.7204C80.1406 59.0914 80.1035 59.2769 80.2519 59.2769C80.4003 59.2769 80.5858 59.1656 80.8084 58.943C81.5504 58.201 82.4409 57.3847 83.4797 56.4943C84.5928 55.6039 85.7429 54.7876 86.9301 54.0456C88.1174 53.2294 89.2675 52.5616 90.3806 52.0421C91.5678 51.5227 92.6066 51.263 93.4971 51.263C94.1649 51.263 94.7214 51.4485 95.1666 51.8195C95.6861 52.1163 95.9458 52.4502 95.9458 52.8213Z" fill="#EDC684"/>
<path d="M153.815 9.1901C153.815 10.0063 153.593 10.8226 153.147 11.6388C152.776 12.455 152.517 13.3826 152.368 14.4214C152.368 14.7924 152.22 15.015 151.923 15.0892C151.7 15.0892 151.589 14.9037 151.589 14.5327C151.589 14.3101 151.626 14.1246 151.7 13.9762C151.775 13.7536 151.812 13.531 151.812 13.3084C151.812 12.4179 151.589 11.6388 151.144 10.971C150.699 10.3031 150.105 9.78373 149.363 9.41271C148.695 8.9675 147.953 8.67069 147.137 8.52228C146.321 8.29968 145.542 8.18837 144.8 8.18837C143.093 8.18837 140.941 8.63359 138.344 9.52402C135.821 10.4144 133.075 12.3808 130.107 15.4231C127.362 18.2428 124.653 21.5077 121.982 25.2179C119.385 28.8538 116.899 32.601 114.525 36.4596C113.041 38.9083 111.371 41.728 109.516 44.9187C107.661 48.0352 105.88 51.1146 104.174 54.1569C102.467 57.125 100.946 59.7963 99.6101 62.1708C98.2745 64.4711 97.4211 66.0293 97.0501 66.8456C96.7533 67.4392 96.642 67.736 96.7162 67.736C96.8646 67.736 97.1614 67.5134 97.6066 67.0682C98.8681 65.8067 100.167 64.5824 101.502 63.3951C102.838 62.2079 104.285 60.9094 105.843 59.4995C105.769 59.2027 105.732 58.7204 105.732 58.0525C105.732 57.4589 106.177 56.9024 107.067 56.383C108.032 55.7894 108.774 55.4184 109.294 55.2699C109.442 55.2699 109.516 55.4184 109.516 55.7152C109.516 55.9378 109.553 56.1233 109.627 56.2717C109.998 55.9749 110.852 55.2699 112.187 54.1569C113.523 52.9697 114.97 51.7824 116.528 50.5952C118.087 49.3337 119.496 48.2207 120.758 47.2561C122.093 46.2172 122.91 45.6978 123.207 45.6978C123.429 45.6978 123.615 45.8091 123.763 46.0317C123.986 46.1801 124.208 46.5511 124.431 47.1448C124.431 47.59 124.06 47.9239 123.318 48.1465C122.427 48.4433 121.351 48.9627 120.09 49.7048C118.829 50.4468 117.53 51.3001 116.194 52.2647C114.933 53.2294 113.672 54.194 112.41 55.1586C111.223 56.1233 110.258 56.9395 109.516 57.6073C109.59 58.572 109.739 59.6479 109.961 60.8351C110.184 62.0224 110.444 63.2096 110.74 64.3969C111.037 65.5841 111.371 66.7714 111.742 67.9586C112.187 69.0716 112.633 70.0734 113.078 70.9638C113.449 71.78 113.968 72.3737 114.636 72.7447C115.378 73.1157 116.12 73.3012 116.862 73.3012C117.975 73.3012 119.2 72.856 120.535 71.9655C121.945 71.0751 123.355 69.9621 124.765 68.6264C126.175 67.2166 127.51 65.7325 128.772 64.1743C130.107 62.5418 131.258 61.0207 132.222 59.6108C132.445 59.2398 132.667 59.1656 132.89 59.3882C133.187 59.6108 133.224 59.8334 133.001 60.056C131.888 61.5401 130.701 63.0241 129.44 64.5082C128.178 65.9922 126.88 67.4021 125.544 68.7377C124.282 70.0734 123.021 71.2606 121.76 72.2995C120.498 73.3383 119.348 74.1545 118.309 74.7481C116.528 75.6386 115.007 76.0838 113.746 76.0838C112.781 76.0838 111.928 75.8612 111.186 75.416C110.444 74.9708 109.776 74.1916 109.182 73.0786C108.663 71.8913 108.143 70.296 107.624 68.2925C107.179 66.289 106.659 63.729 106.066 60.6125C103.691 62.9128 101.317 65.2873 98.9423 67.736C96.5678 70.1847 94.5643 72.856 92.9319 75.7499C92.7835 76.1209 92.4866 76.3064 92.0414 76.3064C91.522 76.3064 91.1139 76.0096 90.8171 75.416C90.5203 74.7481 90.3719 74.1545 90.3719 73.6351C90.3719 73.4867 90.3719 73.3383 90.3719 73.1899C90.3719 73.0415 90.409 72.8931 90.4832 72.7447C91.2252 71.7058 92.0043 70.4444 92.8206 68.9603C93.6368 67.4021 94.6385 65.547 95.8258 63.3951C97.0872 61.1691 98.6084 58.5349 100.389 55.4926C102.17 52.4502 104.359 48.8514 106.956 44.6961C108.143 42.7668 109.479 40.6891 110.963 38.4631C112.521 36.1628 114.117 33.8625 115.749 31.5622C117.456 29.1877 119.162 26.8874 120.869 24.6614C122.65 22.3611 124.357 20.2834 125.989 18.4283C127.176 17.0927 128.438 15.757 129.773 14.4214C131.183 13.0115 132.63 11.7501 134.114 10.6371C135.598 9.44982 137.12 8.41098 138.678 7.52055C140.31 6.63011 141.943 5.99939 143.575 5.62838C144.317 5.47998 145.022 5.33157 145.69 5.18317C146.432 5.03476 147.137 4.96056 147.805 4.96056C148.398 4.96056 149.029 5.07186 149.697 5.29447C150.439 5.44287 151.107 5.70258 151.7 6.0736C152.294 6.37041 152.776 6.77852 153.147 7.29794C153.593 7.81736 153.815 8.44808 153.815 9.1901Z" fill="#EDC684"/>
<path d="M232.73 56.1604C232.73 58.6091 232.136 60.9465 230.949 63.1725C229.762 65.3244 228.166 67.2166 226.163 68.849C224.233 70.4815 222.007 71.78 219.484 72.7447C216.962 73.7093 214.364 74.1916 211.693 74.1916C208.577 74.1916 205.794 73.4125 203.345 71.8542C198.596 74.3029 193.402 75.5273 187.763 75.5273C185.834 75.5273 183.978 75.3418 182.198 74.9707C180.417 74.5255 178.821 73.8577 177.412 72.9673C176.002 72.0026 174.889 70.7783 174.072 69.2943C173.256 67.8102 172.848 65.9922 172.848 63.8404C172.848 61.2433 173.59 58.7575 175.074 56.383C176.558 54.0085 178.228 51.9679 180.083 50.2613C182.383 48.1836 184.98 46.2172 187.874 44.3622C190.842 42.5071 193.514 40.7262 195.888 39.0196C196.333 37.2387 196.927 35.3465 197.669 33.3431C198.485 31.3396 199.413 29.4845 200.451 27.7779C194.218 27.7779 188.282 28.8167 182.643 30.8944C177.078 32.9721 172.217 35.8289 168.062 39.4648C163.907 43.0265 160.605 47.219 158.156 52.0421C155.707 56.8653 154.483 61.9853 154.483 67.4021C154.483 71.1864 155.188 74.4513 156.598 77.1968C158.082 79.9423 160.085 82.2055 162.608 83.9864C165.205 85.8414 168.21 87.1771 171.624 87.9933C175.111 88.8837 178.896 89.329 182.977 89.329C187.948 89.329 192.66 88.624 197.112 87.2142C201.639 85.8043 205.794 83.5412 209.578 80.4246C209.949 80.1278 210.209 79.9794 210.358 79.9794C210.58 80.0536 210.543 80.3133 210.246 80.7586C209.578 81.7974 208.428 82.8362 206.796 83.8751C205.163 84.9881 203.123 85.9898 200.674 86.8803C198.225 87.8449 195.443 88.624 192.326 89.2177C189.284 89.8113 185.982 90.1081 182.42 90.1081C178.413 90.1081 174.518 89.6258 170.733 88.6611C166.949 87.7707 163.573 86.3238 160.605 84.3203C157.637 82.391 155.225 79.8681 153.37 76.7516C151.589 73.6351 150.699 69.925 150.699 65.6212C150.699 60.1302 152.108 55.0473 154.928 50.3726C157.822 45.6978 161.606 41.6167 166.281 38.1291C170.956 34.6416 176.299 31.9332 182.309 30.004C188.319 28.0005 194.478 26.9987 200.785 26.9987C201.008 26.5535 201.342 26.0341 201.787 25.4405C202.232 24.8469 202.678 24.2532 203.123 23.6596C203.642 23.066 204.162 22.5837 204.681 22.2127C205.275 21.7675 205.831 21.5448 206.351 21.5448C207.018 21.5448 207.501 21.7304 207.798 22.1014C208.094 22.4724 208.243 22.8434 208.243 23.2144C208.243 23.8822 208.094 24.6243 207.798 25.4405C207.575 26.2567 207.278 26.9987 206.907 27.6666C211.582 28.4828 215.329 30.1895 218.149 32.7865C220.969 35.3094 222.378 38.9454 222.378 43.6943C222.378 46.143 221.933 48.6288 221.043 51.1517C220.226 53.6004 219.113 55.9749 217.704 58.2752C216.294 60.5754 214.661 62.6902 212.806 64.6195C210.951 66.5487 209.022 68.1812 207.018 69.5169C208.057 70.2589 209.244 70.9267 210.58 71.5203C211.916 72.0397 213.289 72.2995 214.698 72.2995C216.479 72.2995 218.26 72.0397 220.041 71.5203C221.896 71.0009 223.529 70.1847 224.938 69.0716C226.422 67.9586 227.61 66.5116 228.5 64.7308C229.391 62.9499 229.836 60.798 229.836 58.2752C229.836 56.8653 229.613 55.6039 229.168 54.4908C228.797 53.3778 228.277 52.4502 227.61 51.7082C226.942 50.892 226.2 50.2613 225.384 49.8161C224.567 49.3708 223.788 49.1111 223.046 49.0369C222.898 49.0369 222.786 48.9998 222.712 48.9256C222.712 48.7772 222.824 48.6659 223.046 48.5917C223.64 48.5917 224.308 48.5175 225.05 48.3691C225.792 48.1465 226.385 48.0352 226.831 48.0352C228.611 48.0352 230.021 48.8143 231.06 50.3726C232.173 51.8566 232.73 53.7859 232.73 56.1604ZM207.018 24.7727C207.018 24.2532 206.944 23.808 206.796 23.437C206.647 23.066 206.351 22.8805 205.905 22.8805C205.386 22.8805 204.904 23.0289 204.458 23.3257C204.013 23.6225 203.568 23.9935 203.123 24.4388C202.752 24.884 202.418 25.3663 202.121 25.8857C201.824 26.3309 201.602 26.7019 201.453 26.9987C203.234 26.9987 204.867 27.1842 206.351 27.5553C206.499 27.11 206.647 26.6648 206.796 26.2196C206.944 25.7002 207.018 25.2179 207.018 24.7727ZM206.128 28.2231C205.386 28.0747 204.533 27.9634 203.568 27.8892C202.678 27.815 201.824 27.7779 201.008 27.7779C200.043 29.4103 199.19 31.1541 198.448 33.0092C197.78 34.79 197.261 36.5338 196.89 38.2404C198.671 36.979 200.451 35.4207 202.232 33.5657C204.087 31.6364 205.386 29.8555 206.128 28.2231ZM220.264 44.8074C220.264 40.7262 219.039 37.1645 216.591 34.1222C214.142 31.0799 210.84 29.1506 206.685 28.3344C205.868 30.0411 204.496 32.0816 202.566 34.4561C200.711 36.8306 198.559 39.168 196.111 41.4683C195.814 42.7297 195.665 44.2509 195.665 46.0317C195.665 50.9291 196.667 55.4184 198.671 59.4995C200.674 63.5806 203.234 66.7714 206.351 69.0716C211.025 65.8067 214.513 62.0224 216.813 57.7186C219.113 53.3407 220.264 49.0369 220.264 44.8074ZM202.566 71.1864C201.156 70.2218 199.932 68.9974 198.893 67.5134C197.929 65.9551 197.112 64.2856 196.445 62.5047C195.777 60.6496 195.294 58.7204 194.998 56.7169C194.701 54.6392 194.552 52.5616 194.552 50.4839C194.552 48.9998 194.589 47.6271 194.664 46.3656C194.738 45.03 194.923 43.6201 195.22 42.1361C193.514 43.6943 191.658 45.3268 189.655 47.0335C187.726 48.7401 186.056 50.3355 184.646 51.8195C183.756 52.71 182.828 53.7488 181.864 54.936C180.899 56.1233 179.972 57.3476 179.081 58.6091C178.265 59.8705 177.56 61.2062 176.966 62.616C176.447 64.0259 176.187 65.3986 176.187 66.7343C176.187 68.3667 176.521 69.7024 177.189 70.7412C177.857 71.78 178.747 72.5963 179.86 73.1899C180.973 73.7835 182.198 74.1916 183.533 74.4142C184.943 74.6368 186.353 74.7481 187.763 74.7481C190.286 74.7481 192.846 74.4513 195.443 73.8577C198.04 73.2641 200.414 72.3737 202.566 71.1864Z" fill="#EDC684"/>
<path d="M295.039 34.9013C294.445 35.0497 293.778 35.3465 293.036 35.7918C292.293 36.1628 291.737 36.6451 291.366 37.2387C289.659 39.6132 287.99 42.099 286.357 44.6961C284.799 47.2932 283.278 49.8903 281.794 52.4874H295.596C295.818 52.6358 295.929 52.7842 295.929 52.9326C295.929 53.081 295.855 53.1923 295.707 53.2665C295.113 53.2665 294.223 53.3036 293.036 53.3778C291.848 53.3778 290.55 53.4149 289.14 53.4891C287.73 53.5633 286.283 53.6375 284.799 53.7117C283.315 53.7859 282.016 53.8601 280.903 53.9343C278.826 57.6444 277.23 60.798 276.117 63.3951C275.004 65.9922 274.448 68.2554 274.448 70.1847C274.448 72.856 275.672 74.1916 278.121 74.1916C279.308 74.1916 280.644 73.8948 282.128 73.3012C283.686 72.6334 285.318 71.78 287.025 70.7412C287.248 70.5186 287.47 70.5557 287.693 70.8525C287.916 71.0751 287.841 71.2606 287.47 71.409C284.947 73.0415 282.61 74.2287 280.458 74.9707C278.306 75.7128 276.117 76.0838 273.891 76.0838C272.704 76.0838 271.665 75.7499 270.775 75.0821C269.884 74.34 269.439 73.1157 269.439 71.409C269.439 69.925 270.107 67.736 271.443 64.8421C272.778 61.9482 274.745 58.3865 277.342 54.1569C276.451 54.2311 275.338 54.3424 274.003 54.4908C272.741 54.565 271.999 54.6021 271.776 54.6021C271.405 54.6021 271.22 54.4537 271.22 54.1569C271.517 53.6375 271.999 53.1181 272.667 52.5987L278.343 52.4874C279.011 51.3743 279.753 50.15 280.569 48.8143C281.386 47.4045 282.202 46.0317 283.018 44.6961C283.834 43.2862 284.651 41.9506 285.467 40.6891C286.357 39.3535 287.136 38.1291 287.804 37.0161C288.62 36.6451 289.734 36.1628 291.143 35.5691C292.627 34.9755 293.926 34.4932 295.039 34.1222C295.187 34.1222 295.299 34.2335 295.373 34.4561C295.447 34.6045 295.336 34.7529 295.039 34.9013Z" fill="#EDC684"/>
<path d="M315.858 52.8213C315.413 53.3407 314.931 53.9714 314.411 54.7134C313.966 55.4555 313.669 56.012 313.521 56.383C313.446 56.6056 313.298 56.7169 313.075 56.7169C313.001 56.7169 312.89 56.6056 312.742 56.383C312.593 56.1604 312.371 55.9378 312.074 55.7152C311.851 55.4184 311.517 55.1586 311.072 54.936C310.627 54.7134 309.996 54.6021 309.18 54.6021C308.215 54.6021 307.139 54.936 305.952 55.6039C304.765 56.2717 303.726 57.0137 302.836 57.8299C301.426 59.0172 300.164 60.3157 299.051 61.7256C298.012 63.1354 297.011 64.6195 296.046 66.1777C295.081 67.6618 294.154 69.22 293.263 70.8525C292.373 72.4108 291.408 74.0061 290.369 75.6386C290.295 75.8612 290.073 75.9725 289.702 75.9725C289.553 75.9725 289.219 75.7499 288.7 75.3047C288.255 74.8594 288.032 74.5255 288.032 74.3029C288.032 73.8577 288.292 73.1899 288.811 72.2995C289.998 70.2218 291.186 68.1441 292.373 66.0664C293.634 63.9146 294.784 61.9111 295.823 60.056C296.936 58.201 297.901 56.6056 298.717 55.2699C299.533 53.8601 300.09 52.8213 300.387 52.1534C300.758 51.4856 301.018 51.1517 301.166 51.1517C301.314 51.1517 301.685 51.3372 302.279 51.7082C302.873 52.0792 303.169 52.5987 303.169 53.2665C303.169 53.4891 303.021 53.8601 302.724 54.3795C302.502 54.8989 302.205 55.4555 301.834 56.0491C301.537 56.5685 301.24 57.0879 300.943 57.6073C300.647 58.1267 300.424 58.4978 300.276 58.7204C300.053 59.0914 300.016 59.2769 300.164 59.2769C300.313 59.2769 300.498 59.1656 300.721 58.943C301.463 58.201 302.353 57.3847 303.392 56.4943C304.505 55.6039 305.655 54.7876 306.842 54.0456C308.03 53.2294 309.18 52.5616 310.293 52.0421C311.48 51.5227 312.519 51.263 313.409 51.263C314.077 51.263 314.634 51.4485 315.079 51.8195C315.598 52.1163 315.858 52.4502 315.858 52.8213Z" fill="#EDC684"/>
<path d="M350.002 60.2786C348.296 62.3563 346.403 64.4711 344.326 66.623C342.322 68.7006 340.282 70.5928 338.204 72.2995C336.126 74.0061 334.049 75.3789 331.971 76.4177C329.968 77.4565 328.113 77.976 326.406 77.976C324.922 77.976 323.883 77.6049 323.289 76.8629C322.696 76.1209 322.399 75.1934 322.399 74.0803C322.399 73.0415 322.696 71.6687 323.289 69.9621C323.957 68.1812 324.922 66.289 326.183 64.2856C325.219 65.547 324.106 66.8827 322.844 68.2925C321.583 69.7024 320.284 71.0009 318.948 72.1881C317.613 73.3012 316.277 74.2658 314.942 75.0821C313.606 75.8241 312.419 76.1951 311.38 76.1951C309.822 76.1951 309.042 75.416 309.042 73.8577C309.042 72.1511 309.71 69.9992 311.046 67.4021C312.382 64.805 314.162 62.3192 316.388 59.9447C318.689 57.496 321.286 55.4184 324.18 53.7117C327.074 51.9308 330.079 51.0404 333.195 51.0404C333.566 50.2984 333.9 49.779 334.197 49.4821C334.494 49.1853 334.791 48.9627 335.088 48.8143L338.204 47.9239L338.427 48.0352C338.056 48.4062 337.685 48.8885 337.314 49.4821C337.017 50.0016 336.683 50.5581 336.312 51.1517C336.683 51.1517 337.239 51.1888 337.981 51.263C338.724 51.3372 339.28 51.4114 339.651 51.4856C340.022 51.634 340.208 51.8195 340.208 52.0421C340.208 52.2647 340.096 52.376 339.874 52.376C339.428 52.2276 338.761 52.1163 337.87 52.0421C336.98 51.9679 336.312 51.9308 335.867 51.9308C332.453 57.9412 329.93 62.7273 328.298 66.289C326.74 69.7766 325.961 72.3737 325.961 74.0803C325.961 74.7481 326.109 75.3047 326.406 75.7499C326.777 76.1951 327.482 76.4177 328.521 76.4177C329.708 76.4177 331.118 76.0096 332.75 75.1934C334.383 74.3029 336.126 73.1157 337.981 71.6316C339.837 70.0734 341.729 68.2925 343.658 66.289C345.661 64.2856 347.554 62.1708 349.334 59.9447C349.483 59.7221 349.631 59.685 349.78 59.8334C349.928 59.9076 350.002 60.056 350.002 60.2786ZM332.639 51.8195C330.116 51.8195 327.704 52.71 325.404 54.4908C323.104 56.2717 321.063 58.3865 319.282 60.8351C317.502 63.2096 316.055 65.5841 314.942 67.9586C313.903 70.3331 313.383 72.0768 313.383 73.1899C313.383 73.7835 313.606 74.0803 314.051 74.0803C314.496 74.0803 315.164 73.7835 316.055 73.1899C317.019 72.5963 318.095 71.8171 319.282 70.8525C320.47 69.8137 321.657 68.6264 322.844 67.2908C324.106 65.9551 325.256 64.5082 326.295 62.9499C327.482 61.1691 328.632 59.2769 329.745 57.2734C330.858 55.2699 331.86 53.4891 332.75 51.9308L332.639 51.8195Z" fill="#EDC684"/>
<path d="M366.169 53.2665C366.095 54.6763 365.538 56.2346 364.5 57.9412C363.461 59.5737 362.199 61.2433 360.715 62.9499C359.231 64.5824 357.562 66.2148 355.707 67.8473C353.926 69.4056 352.145 70.8154 350.364 72.0768C348.657 73.2641 347.062 74.2658 345.578 75.0821C344.094 75.8241 342.944 76.1951 342.128 76.1951L340.347 74.4142C340.347 74.1174 340.495 74.0061 340.792 74.0803C342.499 73.9319 343.908 73.3012 345.021 72.1881C346.134 71.0009 346.988 68.7006 347.581 65.2873C347.73 64.4711 347.878 63.5806 348.027 62.616C348.175 61.5772 348.323 60.6125 348.472 59.7221C348.62 58.7575 348.769 57.9041 348.917 57.1621C349.14 56.4201 349.325 55.9007 349.474 55.6039C349.77 54.7134 349.845 54.194 349.696 54.0456C349.622 53.823 349.288 53.7117 348.694 53.7117L345.467 54.2682C344.799 53.9714 344.836 53.7117 345.578 53.4891C347.062 53.2665 348.806 53.0068 350.809 52.71C352.813 52.4131 354.408 52.0792 355.595 51.7082C355.818 51.8566 355.855 52.005 355.707 52.1534C355.41 52.376 355.076 52.6358 354.705 52.9326C354.334 53.2294 354.037 53.6375 353.814 54.1569C353.443 54.9731 353.11 55.9749 352.813 57.1621C352.59 58.3494 352.368 59.4995 352.145 60.6125C351.922 61.7256 351.7 62.7644 351.477 63.729C351.329 64.6195 351.18 65.2502 351.032 65.6212C350.587 66.8827 349.845 68.107 348.806 69.2943C347.767 70.4815 346.728 71.4832 345.689 72.2995C345.392 72.8189 345.43 72.9673 345.801 72.7447C347.952 72.0026 349.993 71.038 351.922 69.8508C353.926 68.5893 355.707 67.1424 357.265 65.5099C358.823 63.8032 360.085 61.9111 361.049 59.8334C362.088 57.7557 362.719 55.4926 362.941 53.0439C363.164 50.15 362.719 48.2578 361.606 47.3674C361.457 47.2932 361.42 47.219 361.494 47.1448C361.569 47.0706 361.828 47.0706 362.274 47.1448C363.609 47.2932 364.648 47.9239 365.39 49.0369C366.132 50.15 366.392 51.5598 366.169 53.2665Z" fill="#EDC684"/>
<path d="M395.11 62.2821C393.849 63.8404 392.327 65.4728 390.547 67.1795C388.84 68.8119 386.948 70.3331 384.87 71.7429C382.867 73.0786 380.752 74.1916 378.526 75.0821C376.374 75.8983 374.222 76.3064 372.07 76.3064C368.583 76.3064 366.839 74.7481 366.839 71.6316C366.839 69.554 367.358 67.3279 368.397 64.9534C369.51 62.5047 370.92 60.2786 372.627 58.2752C374.333 56.1975 376.188 54.4908 378.192 53.1552C380.269 51.7453 382.236 51.0404 384.091 51.0404C385.13 51.0404 385.835 51.2259 386.206 51.5969C386.651 51.9679 386.873 52.4502 386.873 53.0439C386.873 53.9343 386.577 54.8989 385.983 55.9378C385.464 56.9766 384.647 57.9783 383.534 58.943C382.421 59.8334 381.011 60.6125 379.305 61.2804C377.598 61.874 375.558 62.1708 373.183 62.1708C372.812 62.8386 372.404 63.9146 371.959 65.3986C371.514 66.8085 371.291 68.2554 371.291 69.7395C371.291 72.7818 372.664 74.3029 375.409 74.3029C377.116 74.3029 378.86 73.8948 380.64 73.0786C382.496 72.2624 384.276 71.2606 385.983 70.0734C387.69 68.8119 389.248 67.4763 390.658 66.0664C392.142 64.5824 393.366 63.2096 394.331 61.9482C394.479 61.7998 394.628 61.7627 394.776 61.8369C394.999 61.9111 395.11 62.0595 395.11 62.2821ZM383.423 53.6004C383.423 52.6358 382.941 52.1534 381.976 52.1534C381.234 52.1534 380.455 52.4502 379.639 53.0439C378.897 53.5633 378.155 54.2682 377.413 55.1586C376.671 56.0491 375.966 57.0137 375.298 58.0525C374.63 59.0914 374.074 60.0931 373.628 61.0578C373.777 61.132 374.036 61.2062 374.407 61.2804C374.778 61.2804 375.075 61.2804 375.298 61.2804C377.45 61.2804 379.342 60.5383 380.974 59.0543C382.607 57.496 383.423 55.6781 383.423 53.6004Z" fill="#EDC684"/>
<path d="M442.645 2.95708C442.645 3.99592 442.237 5.51708 441.421 7.52055C440.605 9.52402 439.418 11.8614 437.859 14.5327C436.375 17.1298 434.52 19.9495 432.294 22.9918C430.142 25.9599 427.657 28.928 424.837 31.8961C422.091 34.8642 419.049 37.721 415.71 40.4665C412.371 43.1378 408.809 45.5123 405.025 47.59C404.357 48.7772 403.429 50.3726 402.242 52.376C401.055 54.3795 399.868 56.4943 398.68 58.7204C397.567 60.9465 396.566 63.1354 395.675 65.2873C394.859 67.4392 394.451 69.2572 394.451 70.7412C394.451 73.1157 395.527 74.3029 397.679 74.3029C399.534 74.3029 401.463 73.7835 403.466 72.7447C405.47 71.7058 407.362 70.4444 409.143 68.9603C410.998 67.4763 412.705 65.918 414.263 64.2856C415.895 62.5789 417.268 61.0578 418.381 59.7221C418.901 59.2027 419.197 59.0914 419.272 59.3882C419.346 59.6108 419.235 59.8705 418.938 60.1673C417.602 61.7998 416.007 63.5435 414.152 65.3986C412.371 67.2537 410.442 68.9603 408.364 70.5186C406.36 72.0768 404.246 73.3754 402.02 74.4142C399.793 75.4531 397.567 75.9725 395.341 75.9725C393.412 75.9725 392.002 75.5273 391.112 74.6368C390.295 73.6722 389.887 72.5221 389.887 71.1864C389.887 69.8508 390.444 67.9586 391.557 65.5099C392.744 62.987 394.117 60.3528 395.675 57.6073C397.233 54.8618 398.792 52.2647 400.35 49.8161C401.908 47.3674 403.058 45.5123 403.8 44.2509C405.062 42.099 406.36 39.8729 407.696 37.5726C409.106 35.1981 410.479 32.8979 411.814 30.6718C413.15 28.4457 414.411 26.3309 415.599 24.3274C416.86 22.2498 418.01 20.4318 419.049 18.8736C420.31 16.9443 421.609 15.1263 422.945 13.4197C424.28 11.713 425.987 10.0063 428.065 8.29967C430.884 5.92519 433.481 4.10723 435.856 2.84578C438.23 1.58434 439.826 0.953613 440.642 0.953613C441.236 0.953613 441.718 1.13912 442.089 1.51014C442.46 1.80695 442.645 2.28926 442.645 2.95708ZM437.637 5.85099C437.637 4.66374 437.154 4.07012 436.19 4.07012C435.819 4.07012 435.411 4.18143 434.965 4.40404C434.52 4.62665 433.927 5.10896 433.185 5.85099C432.517 6.51881 431.663 7.48344 430.625 8.74489C429.66 10.0063 428.399 11.6388 426.84 13.6423C426.247 14.4585 425.393 15.6457 424.28 17.204C423.241 18.7622 421.869 20.8399 420.162 23.437C418.53 25.9599 416.526 29.1135 414.152 32.8979C411.851 36.608 409.106 41.023 405.915 46.143C410.367 43.6201 414.523 40.5778 418.381 37.0161C422.314 33.3802 425.69 29.67 428.51 25.8857C431.33 22.1014 433.556 18.4283 435.188 14.8666C436.821 11.3049 437.637 8.29968 437.637 5.85099Z" fill="#EDC684"/>
</svg>
