<svg width="132" height="94" viewBox="0 0 132 94" fill="none" xmlns="http://www.w3.org/2000/svg">
<path d="M129.166 15.1491C127.648 9.47584 123.198 5.00367 117.554 3.47604C107.243 0.640625 65.9996 0.640625 65.9996 0.640625C65.9996 0.640625 24.7578 0.640625 14.4471 3.36854C8.91181 4.89456 4.3528 9.47664 2.83447 15.1491C0.121094 25.5111 0.121094 47.0006 0.121094 47.0006C0.121094 47.0006 0.121094 68.5984 2.83447 78.8522C4.35441 84.5246 8.80325 88.9968 14.4479 90.5244C24.8664 93.3606 66.0012 93.3606 66.0012 93.3606C66.0012 93.3606 107.243 93.3606 117.554 90.6327C123.198 89.1059 127.648 84.6337 129.168 78.9613C131.881 68.5984 131.881 47.1097 131.881 47.1097C131.881 47.1097 131.989 25.5111 129.166 15.1491ZM52.8686 66.8534V27.1479L87.1646 47.0006L52.8686 66.8534Z" fill="white"/>
</svg>
